<svg width="121" height="16" viewBox="0 0 121 16" fill="none" xmlns="http://www.w3.org/2000/svg">
<path d="M119.209 1.69911C120.419 2.83186 121 4.48378 121 6.70206V15.764H118.822V6.89086C118.822 5.28614 118.387 4.0118 117.564 3.16224C116.741 2.31268 115.531 1.88791 113.982 1.88791C112.24 1.88791 110.885 2.40708 109.868 3.39823C108.9 4.38938 108.416 5.80531 108.416 7.55162V15.764H106.238V0.141593H108.319V3.02065C108.9 2.0767 109.723 1.32153 110.788 0.80236C111.853 0.283186 113.063 0 114.418 0C116.402 0 118.048 0.566372 119.209 1.69911Z" fill="white"/>
<path d="M35.5254 12.0354L36.8322 13.3097C36.1062 14.0649 35.3802 14.6785 34.2186 15.1976C33.1538 15.6696 31.9438 15.9056 30.5886 15.9056C28.8462 15.9056 27.5394 15.6224 26.039 14.7729C24.7322 14.0177 23.9094 13.1209 23.1834 11.941C22.6026 10.9499 22.167 9.53392 22.167 7.9292C22.167 6.60767 22.4574 5.14454 23.135 3.9646C23.861 2.69026 24.7322 1.74631 25.8938 1.08555C27.1522 0.377581 28.459 0 30.0078 0C31.605 0 32.815 0.283186 34.0734 0.99115C35.477 1.79351 36.2514 2.73746 36.8806 3.82301C37.5582 5.00295 37.897 6.70206 37.8486 8.0708H24.345C24.4418 10.997 25.9906 12.3186 26.765 12.885C28.0718 13.8289 29.5238 14.0649 30.6854 14.0649C33.1054 14.0177 34.6542 13.0737 35.5254 12.0354ZM26.039 3.39823C25.1194 4.24779 24.5386 5.61652 24.3934 6.56047H35.6706C35.4286 4.81416 34.4122 3.53982 33.5894 2.97345C32.815 2.40708 31.7986 1.84071 30.1046 1.84071C28.4106 1.79351 27.1522 2.35988 26.039 3.39823Z" fill="white"/>
<path d="M54.0146 0.141113L46.8998 15.8107H44.6734L37.5586 0.141113H39.8334L45.835 13.4508L51.885 0.141113H54.0146Z" fill="white"/>
<path d="M57.7408 14.8673C56.4824 14.2065 55.5144 13.2153 54.7884 12.0354C54.0624 10.8083 53.7236 9.43953 53.7236 7.9292C53.7236 6.41888 54.0624 5.05015 54.7884 3.82301C55.5144 2.59587 56.4824 1.65192 57.7408 0.99115C58.9992 0.330383 60.3544 0 61.9032 0C63.452 0 64.8556 0.330383 66.0656 0.99115C67.324 1.65192 68.292 2.59587 68.9696 3.82301C69.6472 5.05015 70.0344 6.41888 70.0344 7.9292C70.0344 9.43953 69.6956 10.8083 68.9696 12.0354C68.292 13.2625 67.2756 14.2065 66.0656 14.8673C64.8072 15.528 63.452 15.9056 61.9032 15.9056C60.4028 15.9056 58.9992 15.5752 57.7408 14.8673ZM65.0008 13.2625C65.9204 12.7434 66.598 12.0354 67.1304 11.0914C67.6144 10.1475 67.9048 9.10914 67.9048 7.9292C67.9048 6.74926 67.6628 5.66372 67.1304 4.76696C66.598 3.82301 65.9204 3.11504 65.0008 2.59587C64.0812 2.0767 63.0648 1.84071 61.9516 1.84071C60.79 1.84071 59.7736 2.0767 58.9024 2.59587C57.9828 3.11504 57.3052 3.82301 56.7728 4.76696C56.2404 5.71091 55.9984 6.74926 55.9984 7.9292C55.9984 9.10914 56.2404 10.1947 56.7728 11.0914C57.3052 12.0354 57.9828 12.7434 58.9024 13.2625C59.822 13.7817 60.8384 14.0177 61.9516 14.0177C63.0648 14.0177 64.0812 13.7817 65.0008 13.2625Z" fill="white"/>
<path d="M76.0367 14.9141C74.7783 14.2534 73.8103 13.3094 73.0843 12.0823C72.3583 10.8551 72.0195 9.4864 72.0195 7.97608C72.0195 6.46575 72.3583 5.09702 73.0843 3.86988C73.8103 2.64275 74.7783 1.69879 76.0367 1.03803C77.2951 0.377259 78.6987 0.046875 80.2959 0.046875C81.6995 0.046875 82.9095 0.330061 84.0227 0.849235C85.0875 1.36841 85.9587 2.12357 86.5879 3.16192L84.9907 4.24746C84.4583 3.4923 83.7807 2.87873 82.9579 2.50115C82.1351 2.12357 81.2639 1.93478 80.2959 1.93478C79.1343 1.93478 78.1179 2.17077 77.1499 2.68994C76.2303 3.20912 75.5043 3.91708 74.9719 4.86103C74.4395 5.80499 74.1975 6.84334 74.1975 8.02328C74.1975 9.25041 74.4395 10.2888 74.9719 11.2327C75.5043 12.1767 76.2303 12.8846 77.1499 13.3566C78.0695 13.8758 79.1343 14.1118 80.2959 14.1118C81.2639 14.1118 82.1351 13.923 82.9579 13.5454C83.7807 13.1678 84.4583 12.6014 84.9907 11.7991L86.5879 12.8846C85.9587 13.8758 85.0875 14.6781 83.9743 15.1973C82.8611 15.7165 81.6511 15.9997 80.2959 15.9997C78.6987 15.9053 77.2951 15.5749 76.0367 14.9141Z" fill="white"/>
<path d="M91.815 14.8673C90.5566 14.2065 89.5886 13.2153 88.8626 12.0354C88.1366 10.8083 87.7979 9.43953 87.7979 7.9292C87.7979 6.41888 88.1366 5.05015 88.8626 3.82301C89.5886 2.59587 90.5566 1.65192 91.815 0.99115C93.0734 0.330383 94.4286 0 95.9774 0C97.5262 0 98.9299 0.330383 100.14 0.99115C101.398 1.65192 102.366 2.59587 103.044 3.82301C103.721 5.05015 104.109 6.41888 104.109 7.9292C104.109 9.43953 103.77 10.8083 103.044 12.0354C102.366 13.2625 101.35 14.2065 100.14 14.8673C98.8815 15.528 97.5262 15.9056 95.9774 15.9056C94.4286 15.9056 93.0734 15.5752 91.815 14.8673ZM99.075 13.2625C99.9946 12.7434 100.672 12.0354 101.205 11.0914C101.689 10.1475 101.979 9.10914 101.979 7.9292C101.979 6.74926 101.737 5.66372 101.205 4.76696C100.672 3.82301 99.9946 3.11504 99.075 2.59587C98.1554 2.0767 97.1391 1.84071 96.0259 1.84071C94.8643 1.84071 93.8478 2.0767 92.9766 2.59587C92.057 3.11504 91.3794 3.82301 90.847 4.76696C90.3146 5.71091 90.0726 6.74926 90.0726 7.9292C90.0726 9.10914 90.3146 10.1947 90.847 11.0914C91.3794 12.0354 92.057 12.7434 92.9766 13.2625C93.8962 13.7817 94.9127 14.0177 96.0259 14.0177C97.1391 14.0177 98.1554 13.7817 99.075 13.2625Z" fill="white"/>
<path d="M1.08555 2.17109C0.486016 2.17109 0 1.68508 0 1.08555C0 0.486015 0.486015 0 1.08555 0H13.9185C14.518 0 15.004 0.486015 15.004 1.08555C15.004 1.68508 14.518 2.17109 13.9185 2.17109H1.08555Z" fill="#04AF54"/>
<path d="M1.06195 9.01452C0.475451 9.01452 0 8.53907 0 7.95257C0 7.36607 0.47545 6.89062 1.06195 6.89062H8.95686C9.54335 6.89062 10.0188 7.36607 10.0188 7.95257C10.0188 8.53907 9.54336 9.01452 8.95686 9.01452H1.06195Z" fill="#FF8B00"/>
<path d="M1.06195 15.9056C0.47545 15.9056 0 15.4302 0 14.8437C0 14.2572 0.47545 13.7817 1.06195 13.7817H13.9421C14.5286 13.7817 15.004 14.2572 15.004 14.8437C15.004 15.4302 14.5286 15.9056 13.9421 15.9056H1.06195Z" fill="#04AF54"/>
</svg>
